STARTFONT 2.1
COMMENT Exported by Fony v1.4.0.2
FONT Untitled
SIZE 32 96 96
FONTBOUNDINGBOX 21 31 0 -23
STARTPROPERTIES 6
COPYRIGHT "Created with Fony 1.4.0.2"
RESOLUTION_X 96
RESOLUTION_Y 96
FONT_ASCENT 9
FONT_DESCENT 23
DEFAULT_CHAR 0
ENDPROPERTIES
CHARS 256
STARTCHAR 000
ENCODING 0
SWIDTH 1512 0
DWIDTH 21 0
BBX 0 0 0 0
BITMAP
ENDCHAR
STARTCHAR 001
ENCODING 1
SWIDTH 1512 0
DWIDTH 21 0
BBX 0 0 0 0
BITMAP
ENDCHAR
STARTCHAR 002
ENCODING 2
SWIDTH 1512 0
DWIDTH 21 0
BBX 0 0 0 0
BITMAP
ENDCHAR
STARTCHAR 003
ENCODING 3
SWIDTH 1512 0
DWIDTH 21 0
BBX 0 0 0 0
BITMAP
ENDCHAR
STARTCHAR 004
ENCODING 4
SWIDTH 1512 0
DWIDTH 21 0
BBX 0 0 0 0
BITMAP
ENDCHAR
STARTCHAR 005
ENCODING 5
SWIDTH 1512 0
DWIDTH 21 0
BBX 0 0 0 0
BITMAP
ENDCHAR
STARTCHAR 006
ENCODING 6
SWIDTH 1512 0
DWIDTH 21 0
BBX 0 0 0 0
BITMAP
ENDCHAR
STARTCHAR 007
ENCODING 7
SWIDTH 1512 0
DWIDTH 21 0
BBX 0 0 0 0
BITMAP
ENDCHAR
STARTCHAR 008
ENCODING 8
SWIDTH 1512 0
DWIDTH 21 0
BBX 0 0 0 0
BITMAP
ENDCHAR
STARTCHAR 009
ENCODING 9
SWIDTH 1512 0
DWIDTH 21 0
BBX 0 0 0 0
BITMAP
ENDCHAR
STARTCHAR 010
ENCODING 10
SWIDTH 1512 0
DWIDTH 21 0
BBX 0 0 0 0
BITMAP
ENDCHAR
STARTCHAR 011
ENCODING 11
SWIDTH 1512 0
DWIDTH 21 0
BBX 0 0 0 0
BITMAP
ENDCHAR
STARTCHAR 012
ENCODING 12
SWIDTH 1512 0
DWIDTH 21 0
BBX 0 0 0 0
BITMAP
ENDCHAR
STARTCHAR 013
ENCODING 13
SWIDTH 1512 0
DWIDTH 21 0
BBX 0 0 0 0
BITMAP
ENDCHAR
STARTCHAR 014
ENCODING 14
SWIDTH 1512 0
DWIDTH 21 0
BBX 0 0 0 0
BITMAP
ENDCHAR
STARTCHAR 015
ENCODING 15
SWIDTH 1512 0
DWIDTH 21 0
BBX 0 0 0 0
BITMAP
ENDCHAR
STARTCHAR 016
ENCODING 16
SWIDTH 1512 0
DWIDTH 21 0
BBX 0 0 0 0
BITMAP
ENDCHAR
STARTCHAR 017
ENCODING 17
SWIDTH 1512 0
DWIDTH 21 0
BBX 0 0 0 0
BITMAP
ENDCHAR
STARTCHAR 018
ENCODING 18
SWIDTH 1512 0
DWIDTH 21 0
BBX 0 0 0 0
BITMAP
ENDCHAR
STARTCHAR 019
ENCODING 19
SWIDTH 1512 0
DWIDTH 21 0
BBX 0 0 0 0
BITMAP
ENDCHAR
STARTCHAR 020
ENCODING 20
SWIDTH 1512 0
DWIDTH 21 0
BBX 0 0 0 0
BITMAP
ENDCHAR
STARTCHAR 021
ENCODING 21
SWIDTH 1512 0
DWIDTH 21 0
BBX 0 0 0 0
BITMAP
ENDCHAR
STARTCHAR 022
ENCODING 22
SWIDTH 1512 0
DWIDTH 21 0
BBX 0 0 0 0
BITMAP
ENDCHAR
STARTCHAR 023
ENCODING 23
SWIDTH 1512 0
DWIDTH 21 0
BBX 0 0 0 0
BITMAP
ENDCHAR
STARTCHAR 024
ENCODING 24
SWIDTH 1512 0
DWIDTH 21 0
BBX 0 0 0 0
BITMAP
ENDCHAR
STARTCHAR 025
ENCODING 25
SWIDTH 1512 0
DWIDTH 21 0
BBX 0 0 0 0
BITMAP
ENDCHAR
STARTCHAR 026
ENCODING 26
SWIDTH 1512 0
DWIDTH 21 0
BBX 0 0 0 0
BITMAP
ENDCHAR
STARTCHAR 027
ENCODING 27
SWIDTH 1512 0
DWIDTH 21 0
BBX 0 0 0 0
BITMAP
ENDCHAR
STARTCHAR 028
ENCODING 28
SWIDTH 1512 0
DWIDTH 21 0
BBX 0 0 0 0
BITMAP
ENDCHAR
STARTCHAR 029
ENCODING 29
SWIDTH 1512 0
DWIDTH 21 0
BBX 0 0 0 0
BITMAP
ENDCHAR
STARTCHAR 030
ENCODING 30
SWIDTH 1512 0
DWIDTH 21 0
BBX 0 0 0 0
BITMAP
ENDCHAR
STARTCHAR 031
ENCODING 31
SWIDTH 1512 0
DWIDTH 21 0
BBX 0 0 0 0
BITMAP
ENDCHAR
STARTCHAR 032
ENCODING 32
SWIDTH 1512 0
DWIDTH 21 0
BBX 0 0 0 0
BITMAP
ENDCHAR
STARTCHAR 033
ENCODING 33
SWIDTH 1512 0
DWIDTH 21 0
BBX 0 0 0 0
BITMAP
ENDCHAR
STARTCHAR 034
ENCODING 34
SWIDTH 1512 0
DWIDTH 21 0
BBX 0 0 0 0
BITMAP
ENDCHAR
STARTCHAR 035
ENCODING 35
SWIDTH 1512 0
DWIDTH 21 0
BBX 0 0 0 0
BITMAP
ENDCHAR
STARTCHAR 036
ENCODING 36
SWIDTH 1512 0
DWIDTH 21 0
BBX 0 0 0 0
BITMAP
ENDCHAR
STARTCHAR 037
ENCODING 37
SWIDTH 1512 0
DWIDTH 21 0
BBX 0 0 0 0
BITMAP
ENDCHAR
STARTCHAR 038
ENCODING 38
SWIDTH 1512 0
DWIDTH 21 0
BBX 0 0 0 0
BITMAP
ENDCHAR
STARTCHAR 039
ENCODING 39
SWIDTH 1512 0
DWIDTH 21 0
BBX 0 0 0 0
BITMAP
ENDCHAR
STARTCHAR 040
ENCODING 40
SWIDTH 1512 0
DWIDTH 21 0
BBX 0 0 0 0
BITMAP
ENDCHAR
STARTCHAR 041
ENCODING 41
SWIDTH 1512 0
DWIDTH 21 0
BBX 0 0 0 0
BITMAP
ENDCHAR
STARTCHAR 042
ENCODING 42
SWIDTH 1512 0
DWIDTH 21 0
BBX 0 0 0 0
BITMAP
ENDCHAR
STARTCHAR 043
ENCODING 43
SWIDTH 1512 0
DWIDTH 21 0
BBX 0 0 0 0
BITMAP
ENDCHAR
STARTCHAR 044
ENCODING 44
SWIDTH 1512 0
DWIDTH 21 0
BBX 0 0 0 0
BITMAP
ENDCHAR
STARTCHAR 045
ENCODING 45
SWIDTH 1512 0
DWIDTH 21 0
BBX 0 0 0 0
BITMAP
ENDCHAR
STARTCHAR 046
ENCODING 46
SWIDTH 1512 0
DWIDTH 21 0
BBX 0 0 0 0
BITMAP
ENDCHAR
STARTCHAR 047
ENCODING 47
SWIDTH 1512 0
DWIDTH 21 0
BBX 0 0 0 0
BITMAP
ENDCHAR
STARTCHAR 048
ENCODING 48
SWIDTH 1512 0
DWIDTH 21 0
BBX 0 0 0 0
BITMAP
ENDCHAR
STARTCHAR 049
ENCODING 49
SWIDTH 1512 0
DWIDTH 21 0
BBX 0 0 0 0
BITMAP
ENDCHAR
STARTCHAR 050
ENCODING 50
SWIDTH 1512 0
DWIDTH 21 0
BBX 0 0 0 0
BITMAP
ENDCHAR
STARTCHAR 051
ENCODING 51
SWIDTH 1512 0
DWIDTH 21 0
BBX 0 0 0 0
BITMAP
ENDCHAR
STARTCHAR 052
ENCODING 52
SWIDTH 1512 0
DWIDTH 21 0
BBX 0 0 0 0
BITMAP
ENDCHAR
STARTCHAR 053
ENCODING 53
SWIDTH 1512 0
DWIDTH 21 0
BBX 0 0 0 0
BITMAP
ENDCHAR
STARTCHAR 054
ENCODING 54
SWIDTH 1512 0
DWIDTH 21 0
BBX 0 0 0 0
BITMAP
ENDCHAR
STARTCHAR 055
ENCODING 55
SWIDTH 1512 0
DWIDTH 21 0
BBX 0 0 0 0
BITMAP
ENDCHAR
STARTCHAR 056
ENCODING 56
SWIDTH 1512 0
DWIDTH 21 0
BBX 0 0 0 0
BITMAP
ENDCHAR
STARTCHAR 057
ENCODING 57
SWIDTH 1512 0
DWIDTH 21 0
BBX 0 0 0 0
BITMAP
ENDCHAR
STARTCHAR 058
ENCODING 58
SWIDTH 1512 0
DWIDTH 21 0
BBX 0 0 0 0
BITMAP
ENDCHAR
STARTCHAR 059
ENCODING 59
SWIDTH 1512 0
DWIDTH 21 0
BBX 0 0 0 0
BITMAP
ENDCHAR
STARTCHAR 060
ENCODING 60
SWIDTH 1512 0
DWIDTH 21 0
BBX 0 0 0 0
BITMAP
ENDCHAR
STARTCHAR 061
ENCODING 61
SWIDTH 1512 0
DWIDTH 21 0
BBX 0 0 0 0
BITMAP
ENDCHAR
STARTCHAR 062
ENCODING 62
SWIDTH 1512 0
DWIDTH 21 0
BBX 0 0 0 0
BITMAP
ENDCHAR
STARTCHAR 063
ENCODING 63
SWIDTH 1512 0
DWIDTH 21 0
BBX 0 0 0 0
BITMAP
ENDCHAR
STARTCHAR 064
ENCODING 64
SWIDTH 1512 0
DWIDTH 21 0
BBX 0 0 0 0
BITMAP
ENDCHAR
STARTCHAR 065
ENCODING 65
SWIDTH 1512 0
DWIDTH 21 0
BBX 12 2 9 -23
BITMAP
FFF0
FFF0
ENDCHAR
STARTCHAR 066
ENCODING 66
SWIDTH 1512 0
DWIDTH 21 0
BBX 21 2 0 -23
BITMAP
FFFFF8
FFFFF8
ENDCHAR
STARTCHAR 067
ENCODING 67
SWIDTH 1512 0
DWIDTH 21 0
BBX 21 6 0 -23
BITMAP
C00000
C00000
C00000
C00000
FFFFF8
FFFFF8
ENDCHAR
STARTCHAR 068
ENCODING 68
SWIDTH 1512 0
DWIDTH 21 0
BBX 21 10 0 -23
BITMAP
C00000
C00000
C00000
C00000
C00000
C00000
C00000
C00000
FFFFF8
FFFFF8
ENDCHAR
STARTCHAR 069
ENCODING 69
SWIDTH 1512 0
DWIDTH 21 0
BBX 21 15 0 -23
BITMAP
C00000
C00000
C00000
C00000
C00000
C00000
C00000
C00000
C00000
C00000
C00000
C00000
C00000
FFFFF8
FFFFF8
ENDCHAR
STARTCHAR 070
ENCODING 70
SWIDTH 1512 0
DWIDTH 21 0
BBX 21 21 0 -23
BITMAP
C00000
C00000
C00000
C00000
C00000
C00000
C00000
C00000
C00000
C00000
C00000
C00000
C00000
C00000
C00000
C00000
C00000
C00000
C00000
FFFFF8
FFFFF8
ENDCHAR
STARTCHAR 071
ENCODING 71
SWIDTH 1512 0
DWIDTH 21 0
BBX 21 24 0 -23
BITMAP
180000
300000
600000
C00000
C00000
C00000
C00000
C00000
C00000
C00000
C00000
C00000
C00000
C00000
C00000
C00000
C00000
C00000
C00000
C00000
C00000
C00000
FFFFF8
FFFFF8
ENDCHAR
STARTCHAR 072
ENCODING 72
SWIDTH 1512 0
DWIDTH 21 0
BBX 21 27 0 -23
BITMAP
030000
060000
0C0000
180000
300000
600000
C00000
C00000
C00000
C00000
C00000
C00000
C00000
C00000
C00000
C00000
C00000
C00000
C00000
C00000
C00000
C00000
C00000
C00000
C00000
FFFFF8
FFFFF8
ENDCHAR
STARTCHAR 073
ENCODING 73
SWIDTH 1512 0
DWIDTH 21 0
BBX 21 31 0 -23
BITMAP
002000
006000
00C000
018000
030000
060000
0C0000
180000
300000
600000
C00000
C00000
C00000
C00000
C00000
C00000
C00000
C00000
C00000
C00000
C00000
C00000
C00000
C00000
C00000
C00000
C00000
C00000
C00000
FFFFF8
FFFFF8
ENDCHAR
STARTCHAR 074
ENCODING 74
SWIDTH 1512 0
DWIDTH 21 0
BBX 21 31 0 -23
BITMAP
002000
007000
00D800
018C00
030000
060000
0C0000
180000
300000
600000
C00000
C00000
C00000
C00000
C00000
C00000
C00000
C00000
C00000
C00000
C00000
C00000
C00000
C00000
C00000
C00000
C00000
C00000
C00000
FFFFF8
FFFFF8
ENDCHAR
STARTCHAR 075
ENCODING 75
SWIDTH 1512 0
DWIDTH 21 0
BBX 21 31 0 -23
BITMAP
002000
007000
00D800
018C00
030600
060300
0C0180
180000
300000
600000
C00000
C00000
C00000
C00000
C00000
C00000
C00000
C00000
C00000
C00000
C00000
C00000
C00000
C00000
C00000
C00000
C00000
C00000
C00000
FFFFF8
FFFFF8
ENDCHAR
STARTCHAR 076
ENCODING 76
SWIDTH 1512 0
DWIDTH 21 0
BBX 21 31 0 -23
BITMAP
002000
007000
00D800
018C00
030600
060300
0C0180
1800C0
300060
600030
C00000
C00000
C00000
C00000
C00000
C00000
C00000
C00000
C00000
C00000
C00000
C00000
C00000
C00000
C00000
C00000
C00000
C00000
C00000
FFFFF8
FFFFF8
ENDCHAR
STARTCHAR 077
ENCODING 77
SWIDTH 1512 0
DWIDTH 21 0
BBX 21 31 0 -23
BITMAP
002000
007000
00D800
018C00
030600
060300
0C0180
1800C0
300060
600030
C00018
C00018
C00000
C00000
C00000
C00000
C00000
C00000
C00000
C00000
C00000
C00000
C00000
C00000
C00000
C00000
C00000
C00000
C00000
FFFFF8
FFFFF8
ENDCHAR
STARTCHAR 078
ENCODING 78
SWIDTH 1512 0
DWIDTH 21 0
BBX 21 31 0 -23
BITMAP
002000
007000
00D800
018C00
030600
060300
0C0180
1800C0
300060
600030
C000F8
C000F8
C00000
C00000
C00000
C00000
C00000
C00000
C00000
C00000
C00000
C00000
C00000
C00000
C00000
C00000
C00000
C00000
C00000
FFFFF8
FFFFF8
ENDCHAR
STARTCHAR 079
ENCODING 79
SWIDTH 1512 0
DWIDTH 21 0
BBX 21 31 0 -23
BITMAP
002000
007000
00D800
018C00
030600
060300
0C0180
1800C0
300060
600030
C007F8
C007F8
C00000
C00000
C00000
C00000
C00000
C00000
C00000
C00000
C00000
C00000
C00000
C00000
C00000
C00000
C00000
C00000
C00000
FFFFF8
FFFFF8
ENDCHAR
STARTCHAR 080
ENCODING 80
SWIDTH 1512 0
DWIDTH 21 0
BBX 21 31 0 -23
BITMAP
002000
007000
00D800
018C00
030600
060300
0C0180
1800C0
300060
600030
C03FF8
C03FF8
C00000
C00000
C00000
C00000
C00000
C00000
C00000
C00000
C00000
C00000
C00000
C00000
C00000
C00000
C00000
C00000
C00000
FFFFF8
FFFFF8
ENDCHAR
STARTCHAR 081
ENCODING 81
SWIDTH 1512 0
DWIDTH 21 0
BBX 21 31 0 -23
BITMAP
002000
007000
00D800
018C00
030600
060300
0C0180
1800C0
300060
600030
C3FFF8
C3FFF8
C00000
C00000
C00000
C00000
C00000
C00000
C00000
C00000
C00000
C00000
C00000
C00000
C00000
C00000
C00000
C00000
C00000
FFFFF8
FFFFF8
ENDCHAR
STARTCHAR 082
ENCODING 82
SWIDTH 1512 0
DWIDTH 21 0
BBX 21 31 0 -23
BITMAP
002000
007000
00D800
018C00
030600
060300
0C0180
1800C0
300060
600030
FFFFF8
FFFFF8
C00000
C00000
C00000
C00000
C00000
C00000
C00000
C00000
C00000
C00000
C00000
C00000
C00000
C00000
C00000
C00000
C00000
FFFFF8
FFFFF8
ENDCHAR
STARTCHAR 083
ENCODING 83
SWIDTH 1512 0
DWIDTH 21 0
BBX 21 31 0 -23
BITMAP
002000
007000
00D800
018C00
030600
060300
0C0180
1800C0
300060
600030
FFFFF8
FFFFF8
E00000
D00000
C80000
C40000
C00000
C00000
C00000
C00000
C00000
C00000
C00000
C00000
C00000
C00000
C00000
C00000
C00000
FFFFF8
FFFFF8
ENDCHAR
STARTCHAR 084
ENCODING 84
SWIDTH 1512 0
DWIDTH 21 0
BBX 21 31 0 -23
BITMAP
002000
007000
00D800
018C00
030600
060300
0C0180
1800C0
300060
600030
FFFFF8
FFFFF8
E00000
D00000
C80000
C40000
C20000
C10000
C08000
C04000
C00000
C00000
C00000
C00000
C00000
C00000
C00000
C00000
C00000
FFFFF8
FFFFF8
ENDCHAR
STARTCHAR 085
ENCODING 85
SWIDTH 1512 0
DWIDTH 21 0
BBX 21 31 0 -23
BITMAP
002000
007000
00D800
018C00
030600
060300
0C0180
1800C0
300060
600030
FFFFF8
FFFFF8
E00000
D00000
C80000
C40000
C20000
C10000
C08000
C04000
C02000
C01000
C00800
C00400
C00000
C00000
C00000
C00000
C00000
FFFFF8
FFFFF8
ENDCHAR
STARTCHAR 086
ENCODING 86
SWIDTH 1512 0
DWIDTH 21 0
BBX 21 31 0 -23
BITMAP
002000
007000
00D800
018C00
030600
060300
0C0180
1800C0
300060
600030
FFFFF8
FFFFF8
E00000
D00000
C80000
C40000
C20000
C10000
C08000
C04000
C02000
C01000
C00800
C00400
C00200
C00100
C00080
C00040
C00020
FFFFF8
FFFFF8
ENDCHAR
STARTCHAR 087
ENCODING 87
SWIDTH 1512 0
DWIDTH 21 0
BBX 21 31 0 -23
BITMAP
002000
007000
00D800
018C00
030600
060300
0C0180
1800C0
300060
600030
FFFFF8
FFFFF8
E00000
D00000
C80000
C40000
C20000
C10000
C08000
C04000
C02000
C01000
C00800
C00400
C00218
C00118
C00098
C00058
C00038
FFFFF8
FFFFF8
ENDCHAR
STARTCHAR 088
ENCODING 88
SWIDTH 1512 0
DWIDTH 21 0
BBX 21 31 0 -23
BITMAP
002000
007000
00D800
018C00
030600
060300
0C0180
1800C0
300060
600030
FFFFF8
FFFFF8
E00000
D00000
C80000
C40000
C20000
C10000
C08000
C04000
C02018
C01018
C00818
C00418
C00218
C00118
C00098
C00058
C00038
FFFFF8
FFFFF8
ENDCHAR
STARTCHAR 089
ENCODING 89
SWIDTH 1512 0
DWIDTH 21 0
BBX 21 31 0 -23
BITMAP
002000
007000
00D800
018C00
030600
060300
0C0180
1800C0
300060
600030
FFFFF8
FFFFF8
E00000
D00000
C80000
C40000
C20018
C10018
C08018
C04018
C02018
C01018
C00818
C00418
C00218
C00118
C00098
C00058
C00038
FFFFF8
FFFFF8
ENDCHAR
STARTCHAR 090
ENCODING 90
SWIDTH 1512 0
DWIDTH 21 0
BBX 21 31 0 -23
BITMAP
002000
007000
00D800
018C00
030600
060300
0C0180
1800C0
300060
600030
FFFFF8
FFFFF8
E00018
D00018
C80018
C40018
C20018
C10018
C08018
C04018
C02018
C01018
C00818
C00418
C00218
C00118
C00098
C00058
C00038
FFFFF8
FFFFF8
ENDCHAR
STARTCHAR 091
ENCODING 91
SWIDTH 1512 0
DWIDTH 21 0
BBX 21 31 0 -23
BITMAP
002000
007000
00D800
018C00
030600
060300
0C0180
1800C0
300060
600030
FFFFF8
FFFFF8
E00038
D00058
C80098
C40118
C20018
C10018
C08018
C04018
C02018
C01018
C00818
C00418
C00218
C00118
C00098
C00058
C00038
FFFFF8
FFFFF8
ENDCHAR
STARTCHAR 092
ENCODING 92
SWIDTH 1512 0
DWIDTH 21 0
BBX 21 31 0 -23
BITMAP
002000
007000
00D800
018C00
030600
060300
0C0180
1800C0
300060
600030
FFFFF8
FFFFF8
E00038
D00058
C80098
C40118
C20218
C10418
C08818
C05018
C02018
C01018
C00818
C00418
C00218
C00118
C00098
C00058
C00038
FFFFF8
FFFFF8
ENDCHAR
STARTCHAR 093
ENCODING 93
SWIDTH 1512 0
DWIDTH 21 0
BBX 21 31 0 -23
BITMAP
002000
007000
00D800
018C00
030600
060300
0C0180
1800C0
300060
600030
FFFFF8
FFFFF8
E00038
D00058
C80098
C40118
C20218
C10418
C08818
C05018
C02018
C05018
C08818
C10418
C20218
C00118
C00098
C00058
C00038
FFFFF8
FFFFF8
ENDCHAR
STARTCHAR 094
ENCODING 94
SWIDTH 1512 0
DWIDTH 21 0
BBX 21 31 0 -23
BITMAP
002000
007000
00D800
018C00
030600
060300
0C0180
1800C0
300060
600030
FFFFF8
FFFFF8
E00038
D00058
C80098
C40118
C20218
C10418
C08818
C05018
C02018
C05018
C08818
C10418
C20218
C40118
C80098
D00058
E00038
FFFFF8
FFFFF8
ENDCHAR
STARTCHAR 095
ENCODING 95
SWIDTH 1512 0
DWIDTH 21 0
BBX 21 31 0 -23
BITMAP
002000
007000
00D800
018C00
030600
060300
0C0180
1800C0
300060
600030
FFFFF8
FFFFF8
E00038
D00058
C80098
C40118
C20218
C10418
C08818
C05018
C02018
C05018
C08818
C10418
C20218
C40118
C80098
D00058
E00038
FFFFF8
FFFFF8
ENDCHAR
STARTCHAR 096
ENCODING 96
SWIDTH 1512 0
DWIDTH 21 0
BBX 21 31 0 -23
BITMAP
002000
007000
00D800
018C00
030600
060300
0C0180
1800C0
300060
600030
FFFFF8
FFFFF8
E00038
D00058
C80098
C47118
C28A18
C10418
C20218
C40118
C40118
C40118
C20218
C10418
C28A18
C47118
C80098
D00058
E00038
FFFFF8
FFFFF8
ENDCHAR
STARTCHAR 097
ENCODING 97
SWIDTH 1512 0
DWIDTH 21 0
BBX 21 31 0 -23
BITMAP
002000
007000
00D800
018C00
030600
060300
0C0180
1800C0
300060
600030
FFFFF8
FFFFF8
E00038
D00058
C80098
C47118
C28A18
C10418
C2FA18
C48918
C48918
C48918
C2FA18
C10418
C28A18
C47118
C80098
D00058
E00038
FFFFF8
FFFFF8
ENDCHAR
STARTCHAR 098
ENCODING 98
SWIDTH 1512 0
DWIDTH 21 0
BBX 21 31 0 -23
BITMAP
002000
007000
00D800
018C00
030600
060300
0C0180
1800C0
300060
600030
FFFFF8
FFFFF8
E00038
D02058
C82098
C47118
C28A18
C10418
C2FA18
C48918
DC89D8
C48918
C2FA18
C10418
C28A18
C47118
C82098
D02058
E00038
FFFFF8
FFFFF8
ENDCHAR
STARTCHAR 099
ENCODING 99
SWIDTH 1512 0
DWIDTH 21 0
BBX 21 31 0 -23
BITMAP
002000
007000
00D800
018C00
030600
060300
0C0180
1800C0
300060
600030
FFFFF8
FFFFF8
E02038
D02058
C80098
C47118
C28A18
C10418
C2FA18
C4F918
F4D978
C4F918
C2FA18
C10418
C28A18
C47118
C80098
D02058
E02038
FFFFF8
FFFFF8
ENDCHAR
STARTCHAR 100
ENCODING 100
SWIDTH 1512 0
DWIDTH 21 0
BBX 21 31 0 -23
BITMAP
002000
007000
00D800
018C00
030600
060300
0C0180
1800C0
300060
600030
FFFFF8
FFFFF8
E00038
D02058
C82098
C47118
C28A18
C10418
C2FA18
C48918
DC89D8
C48918
C2FA18
C10418
C28A18
C47118
C82098
D02058
E00038
FFFFF8
FFFFF8
ENDCHAR
STARTCHAR 101
ENCODING 101
SWIDTH 1512 0
DWIDTH 21 0
BBX 21 31 0 -23
BITMAP
002000
007000
00D800
018C00
030600
060300
0C0180
1800C0
300060
600030
FFFFF8
FFFFF8
E00038
D00058
C80098
C47118
C28A18
C10418
C2FA18
C48918
C48918
C48918
C2FA18
C10418
C28A18
C47118
C80098
D00058
E00038
FFFFF8
FFFFF8
ENDCHAR
STARTCHAR 102
ENCODING 102
SWIDTH 1512 0
DWIDTH 21 0
BBX 21 31 0 -23
BITMAP
002000
007000
00D800
018C00
030600
060300
0C0180
1800C0
300060
600030
FFFFF8
FFFFF8
E00038
D02058
C82098
C47118
C28A18
C10418
C2FA18
C48918
DC89D8
C48918
C2FA18
C10418
C28A18
C47118
C82098
D02058
E00038
FFFFF8
FFFFF8
ENDCHAR
STARTCHAR 103
ENCODING 103
SWIDTH 1512 0
DWIDTH 21 0
BBX 21 31 0 -23
BITMAP
002000
007000
00D800
018C00
030600
060300
0C0180
1800C0
300060
600030
FFFFF8
FFFFF8
E02038
D02058
C80098
C47118
C28A18
C10418
C2FA18
C4F918
F4D978
C4F918
C2FA18
C10418
C28A18
C47118
C80098
D02058
E02038
FFFFF8
FFFFF8
ENDCHAR
STARTCHAR 104
ENCODING 104
SWIDTH 1512 0
DWIDTH 21 0
BBX 21 31 0 -23
BITMAP
002000
007000
00D800
018C00
030600
060300
0C0180
1800C0
300060
600030
FFFFF8
FFFFF8
E00038
D00058
C80098
C47118
C28A18
C10418
C2FA18
C48918
C48918
C48918
C2FA18
C10418
C28A18
C47118
C80098
D00058
E00038
FFFFF8
FFFFF8
ENDCHAR
STARTCHAR 105
ENCODING 105
SWIDTH 1512 0
DWIDTH 21 0
BBX 21 31 0 -23
BITMAP
002000
007000
00D800
018C00
030600
060300
0C0180
1800C0
300060
600030
FFFFF8
FFFFF8
E00038
D02058
C82098
C47118
C28A18
C10418
C2FA18
C48918
DC89D8
C48918
C2FA18
C10418
C28A18
C47118
C82098
D02058
E00038
FFFFF8
FFFFF8
ENDCHAR
STARTCHAR 106
ENCODING 106
SWIDTH 1512 0
DWIDTH 21 0
BBX 21 32 0 -23
BITMAP
400000
402000
407000
40D800
018C00
030600
060300
0C0180
1800C0
300060
600030
FFFFF8
FFFFF8
E02038
D02058
C80098
C47118
C28A18
C10418
C2FA18
C4F918
F4D978
C4F918
C2FA18
C10418
C28A18
C47118
C80098
D02058
E02038
FFFFF8
FFFFF8
ENDCHAR
STARTCHAR 107
ENCODING 107
SWIDTH 1512 0
DWIDTH 21 0
BBX 21 32 0 -23
BITMAP
700000
402000
407000
40D800
018C00
030600
060300
0C0180
1800C0
300060
600030
FFFFF8
FFFFF8
E00038
D02058
C82098
C47118
C28A18
C10418
C2FA18
C48918
DC89D8
C48918
C2FA18
C10418
C28A18
C47118
C82098
D02058
E00038
FFFFF8
FFFFF8
ENDCHAR
STARTCHAR 108
ENCODING 108
SWIDTH 1512 0
DWIDTH 21 0
BBX 21 32 0 -23
BITMAP
700000
502000
507000
50D800
018C00
030600
060300
0C0180
1800C0
300060
600030
FFFFF8
FFFFF8
E00038
D00058
C80098
C47118
C28A18
C10418
C2FA18
C48918
C48918
C48918
C2FA18
C10418
C28A18
C47118
C80098
D00058
E00038
FFFFF8
FFFFF8
ENDCHAR
STARTCHAR 109
ENCODING 109
SWIDTH 1512 0
DWIDTH 21 0
BBX 21 32 0 -23
BITMAP
7C0000
502000
507000
50D800
018C00
030600
060300
0C0180
1800C0
300060
600030
FFFFF8
FFFFF8
E00038
D02058
C82098
C47118
C28A18
C10418
C2FA18
C48918
DC89D8
C48918
C2FA18
C10418
C28A18
C47118
C82098
D02058
E00038
FFFFF8
FFFFF8
ENDCHAR
STARTCHAR 110
ENCODING 110
SWIDTH 1512 0
DWIDTH 21 0
BBX 21 31 0 -23
BITMAP
7C2000
547000
54D800
558C00
030600
060300
0C0180
1800C0
300060
600030
FFFFF8
FFFFF8
E02038
D02058
C80098
C47118
C28A18
C10418
C2FA18
C4F918
F4D978
C4F918
C2FA18
C10418
C28A18
C47118
C80098
D02058
E02038
FFFFF8
FFFFF8
ENDCHAR
STARTCHAR 111
ENCODING 111
SWIDTH 1512 0
DWIDTH 21 0
BBX 21 32 0 -23
BITMAP
7C0000
542000
547000
54D800
018C00
030600
060300
0C0180
1800C0
300060
600030
FFFFF8
FFFFF8
E00038
D02058
C82098
C47118
C28A18
C10418
C2FA18
C48918
DC89D8
C48918
C2FA18
C10418
C28A18
C47118
C82098
D02058
E00038
FFFFF8
FFFFF8
ENDCHAR
STARTCHAR 112
ENCODING 112
SWIDTH 1512 0
DWIDTH 21 0
BBX 21 31 0 -23
BITMAP
7C2000
547000
54D800
558C00
030600
060300
0C0180
1800C0
300060
600030
FFFFF8
FFFFF8
E00038
D00058
C80098
C47118
C28A18
C10418
C2FA18
C48918
C48918
C48918
C2FA18
C10418
C28A18
C47118
C80098
D00058
E00038
FFFFF8
FFFFF8
ENDCHAR
STARTCHAR 113
ENCODING 113
SWIDTH 1512 0
DWIDTH 21 0
BBX 21 32 0 -23
BITMAP
7C0000
542000
547000
54D800
018C00
030600
064300
0C4180
1840C0
300060
600030
FFFFF8
FFFFF8
E00038
D02058
C82098
C47118
C28A18
C10418
C2FA18
C48918
DC89D8
C48918
C2FA18
C10418
C28A18
C47118
C82098
D02058
E00038
FFFFF8
FFFFF8
ENDCHAR
STARTCHAR 114
ENCODING 114
SWIDTH 1512 0
DWIDTH 21 0
BBX 21 32 0 -23
BITMAP
7C0000
542000
547000
54D800
018C00
034600
064300
0C4180
1870C0
300060
600030
FFFFF8
FFFFF8
E02038
D02058
C80098
C47118
C28A18
C10418
C2FA18
C4F918
F4D978
C4F918
C2FA18
C10418
C28A18
C47118
C80098
D02058
E02038
FFFFF8
FFFFF8
ENDCHAR
STARTCHAR 115
ENCODING 115
SWIDTH 1512 0
DWIDTH 21 0
BBX 21 32 0 -23
BITMAP
7C0000
542000
547000
54D800
018C00
030600
064300
0C4180
1840C0
307060
600030
FFFFF8
FFFFF8
E00038
D02058
C82098
C47118
C28A18
C10418
C2FA18
C48918
DC89D8
C48918
C2FA18
C10418
C28A18
C47118
C82098
D02058
E00038
FFFFF8
FFFFF8
ENDCHAR
STARTCHAR 116
ENCODING 116
SWIDTH 1512 0
DWIDTH 21 0
BBX 21 32 0 -23
BITMAP
7C0000
542000
547000
54D800
018C00
034600
064300
0C4180
1870C0
300060
600030
FFFFF8
FFFFF8
E00038
D00058
C80098
C47118
C28A18
C10418
C2FA18
C48918
C48918
C48918
C2FA18
C10418
C28A18
C47118
C80098
D00058
E00038
FFFFF8
FFFFF8
ENDCHAR
STARTCHAR 117
ENCODING 117
SWIDTH 1512 0
DWIDTH 21 0
BBX 21 32 0 -23
BITMAP
7C0040
542040
547040
54D840
018C00
030600
064300
0C4180
1840C0
307060
600030
FFFFF8
FFFFF8
E00038
D02058
C82098
C47118
C28A18
C10418
C2FA18
C48918
DC89D8
C48918
C2FA18
C10418
C28A18
C47118
C82098
D02058
E00038
FFFFF8
FFFFF8
ENDCHAR
STARTCHAR 118
ENCODING 118
SWIDTH 1512 0
DWIDTH 21 0
BBX 21 32 0 -23
BITMAP
7C0040
542040
547040
54D870
018C00
030600
064300
0C4180
1840C0
307060
600030
FFFFF8
FFFFF8
E02038
D02058
C80098
C47118
C28A18
C10418
C2FA18
C4F918
F4D978
C4F918
C2FA18
C10418
C28A18
C47118
C80098
D02058
E02038
FFFFF8
FFFFF8
ENDCHAR
STARTCHAR 119
ENCODING 119
SWIDTH 1512 0
DWIDTH 21 0
BBX 21 32 0 -23
BITMAP
7C0000
542040
547040
54D840
018C70
030600
064300
0C4180
1840C0
307060
600030
FFFFF8
FFFFF8
E00038
D02058
C82098
C47118
C28A18
C10418
C2FA18
C48918
DC89D8
C48918
C2FA18
C10418
C28A18
C47118
C82098
D02058
E00038
FFFFF8
FFFFF8
ENDCHAR
STARTCHAR 120
ENCODING 120
SWIDTH 1512 0
DWIDTH 21 0
BBX 21 32 0 -23
BITMAP
7C0040
542040
547040
54D870
018C00
030600
064300
0C4180
1840C0
307060
600030
FFFFF8
FFFFF8
E00038
D00058
C80098
C47118
C28A18
C10418
C2FA18
C48918
C48918
C48918
C2FA18
C10418
C28A18
C47118
C80098
D00058
E00038
FFFFF8
FFFFF8
ENDCHAR
STARTCHAR 121
ENCODING 121
SWIDTH 1512 0
DWIDTH 21 0
BBX 21 31 0 -23
BITMAP
7C2040
547040
54D840
558C70
034600
064300
0C4180
1870C0
300060
600030
FFFFF8
FFFFF8
E00038
D02058
C82098
C47118
C28A18
C10418
C2FA18
C48918
DC89D8
C48918
C2FA18
C10418
C28A18
C47118
C82098
D02058
E00038
FFFFF8
FFFFF8
ENDCHAR
STARTCHAR 122
ENCODING 122
SWIDTH 1512 0
DWIDTH 21 0
BBX 21 32 0 -23
BITMAP
7C0040
542040
547040
54D870
018C00
030600
064300
0C4180
1840C0
307060
600030
FFFFF8
FFFFF8
E02038
D02058
C80098
C47118
C28A18
C10418
C2FA18
C4F918
F4D978
C4F918
C2FA18
C10418
C28A18
C47118
C80098
D02058
E02038
FFFFF8
FFFFF8
ENDCHAR
STARTCHAR 123
ENCODING 123
SWIDTH 1512 0
DWIDTH 21 0
BBX 21 31 0 -23
BITMAP
7C2040
547040
54D840
558C70
034600
064300
0C4180
1870C0
300060
600030
FFFFF8
FFFFF8
E00038
D02058
C82098
C47118
C28A18
C10418
C2FA18
C48918
DC89D8
C48918
C2FA18
C10418
C28A18
C47118
C82098
D02058
E00038
FFFFF8
FFFFF8
ENDCHAR
STARTCHAR 124
ENCODING 124
SWIDTH 1512 0
DWIDTH 21 0
BBX 21 32 0 -23
BITMAP
7C0040
542040
547040
54D870
018C00
030600
064300
0C4180
1840C0
307060
600030
FFFFF8
FFFFF8
E00038
D00058
C80098
C47118
C28A18
C10418
C2FA18
C48918
C48918
C48918
C2FA18
C10418
C28A18
C47118
C80098
D00058
E00038
FFFFF8
FFFFF8
ENDCHAR
STARTCHAR 125
ENCODING 125
SWIDTH 1512 0
DWIDTH 21 0
BBX 0 0 0 0
BITMAP
ENDCHAR
STARTCHAR 126
ENCODING 126
SWIDTH 1512 0
DWIDTH 21 0
BBX 0 0 0 0
BITMAP
ENDCHAR
STARTCHAR 127
ENCODING 127
SWIDTH 1512 0
DWIDTH 21 0
BBX 0 0 0 0
BITMAP
ENDCHAR
STARTCHAR 128
ENCODING 128
SWIDTH 1512 0
DWIDTH 21 0
BBX 0 0 0 0
BITMAP
ENDCHAR
STARTCHAR 129
ENCODING 129
SWIDTH 1512 0
DWIDTH 21 0
BBX 0 0 0 0
BITMAP
ENDCHAR
STARTCHAR 130
ENCODING 130
SWIDTH 1512 0
DWIDTH 21 0
BBX 0 0 0 0
BITMAP
ENDCHAR
STARTCHAR 131
ENCODING 131
SWIDTH 1512 0
DWIDTH 21 0
BBX 0 0 0 0
BITMAP
ENDCHAR
STARTCHAR 132
ENCODING 132
SWIDTH 1512 0
DWIDTH 21 0
BBX 0 0 0 0
BITMAP
ENDCHAR
STARTCHAR 133
ENCODING 133
SWIDTH 1512 0
DWIDTH 21 0
BBX 0 0 0 0
BITMAP
ENDCHAR
STARTCHAR 134
ENCODING 134
SWIDTH 1512 0
DWIDTH 21 0
BBX 0 0 0 0
BITMAP
ENDCHAR
STARTCHAR 135
ENCODING 135
SWIDTH 1512 0
DWIDTH 21 0
BBX 0 0 0 0
BITMAP
ENDCHAR
STARTCHAR 136
ENCODING 136
SWIDTH 1512 0
DWIDTH 21 0
BBX 0 0 0 0
BITMAP
ENDCHAR
STARTCHAR 137
ENCODING 137
SWIDTH 1512 0
DWIDTH 21 0
BBX 0 0 0 0
BITMAP
ENDCHAR
STARTCHAR 138
ENCODING 138
SWIDTH 1512 0
DWIDTH 21 0
BBX 0 0 0 0
BITMAP
ENDCHAR
STARTCHAR 139
ENCODING 139
SWIDTH 1512 0
DWIDTH 21 0
BBX 0 0 0 0
BITMAP
ENDCHAR
STARTCHAR 140
ENCODING 140
SWIDTH 1512 0
DWIDTH 21 0
BBX 0 0 0 0
BITMAP
ENDCHAR
STARTCHAR 141
ENCODING 141
SWIDTH 1512 0
DWIDTH 21 0
BBX 0 0 0 0
BITMAP
ENDCHAR
STARTCHAR 142
ENCODING 142
SWIDTH 1512 0
DWIDTH 21 0
BBX 0 0 0 0
BITMAP
ENDCHAR
STARTCHAR 143
ENCODING 143
SWIDTH 1512 0
DWIDTH 21 0
BBX 0 0 0 0
BITMAP
ENDCHAR
STARTCHAR 144
ENCODING 144
SWIDTH 1512 0
DWIDTH 21 0
BBX 0 0 0 0
BITMAP
ENDCHAR
STARTCHAR 145
ENCODING 145
SWIDTH 1512 0
DWIDTH 21 0
BBX 0 0 0 0
BITMAP
ENDCHAR
STARTCHAR 146
ENCODING 146
SWIDTH 1512 0
DWIDTH 21 0
BBX 0 0 0 0
BITMAP
ENDCHAR
STARTCHAR 147
ENCODING 147
SWIDTH 1512 0
DWIDTH 21 0
BBX 0 0 0 0
BITMAP
ENDCHAR
STARTCHAR 148
ENCODING 148
SWIDTH 1512 0
DWIDTH 21 0
BBX 0 0 0 0
BITMAP
ENDCHAR
STARTCHAR 149
ENCODING 149
SWIDTH 1512 0
DWIDTH 21 0
BBX 0 0 0 0
BITMAP
ENDCHAR
STARTCHAR 150
ENCODING 150
SWIDTH 1512 0
DWIDTH 21 0
BBX 0 0 0 0
BITMAP
ENDCHAR
STARTCHAR 151
ENCODING 151
SWIDTH 1512 0
DWIDTH 21 0
BBX 0 0 0 0
BITMAP
ENDCHAR
STARTCHAR 152
ENCODING 152
SWIDTH 1512 0
DWIDTH 21 0
BBX 0 0 0 0
BITMAP
ENDCHAR
STARTCHAR 153
ENCODING 153
SWIDTH 1512 0
DWIDTH 21 0
BBX 0 0 0 0
BITMAP
ENDCHAR
STARTCHAR 154
ENCODING 154
SWIDTH 1512 0
DWIDTH 21 0
BBX 0 0 0 0
BITMAP
ENDCHAR
STARTCHAR 155
ENCODING 155
SWIDTH 1512 0
DWIDTH 21 0
BBX 0 0 0 0
BITMAP
ENDCHAR
STARTCHAR 156
ENCODING 156
SWIDTH 1512 0
DWIDTH 21 0
BBX 0 0 0 0
BITMAP
ENDCHAR
STARTCHAR 157
ENCODING 157
SWIDTH 1512 0
DWIDTH 21 0
BBX 0 0 0 0
BITMAP
ENDCHAR
STARTCHAR 158
ENCODING 158
SWIDTH 1512 0
DWIDTH 21 0
BBX 0 0 0 0
BITMAP
ENDCHAR
STARTCHAR 159
ENCODING 159
SWIDTH 1512 0
DWIDTH 21 0
BBX 0 0 0 0
BITMAP
ENDCHAR
STARTCHAR 160
ENCODING 160
SWIDTH 1512 0
DWIDTH 21 0
BBX 0 0 0 0
BITMAP
ENDCHAR
STARTCHAR 161
ENCODING 161
SWIDTH 1512 0
DWIDTH 21 0
BBX 0 0 0 0
BITMAP
ENDCHAR
STARTCHAR 162
ENCODING 162
SWIDTH 1512 0
DWIDTH 21 0
BBX 0 0 0 0
BITMAP
ENDCHAR
STARTCHAR 163
ENCODING 163
SWIDTH 1512 0
DWIDTH 21 0
BBX 0 0 0 0
BITMAP
ENDCHAR
STARTCHAR 164
ENCODING 164
SWIDTH 1512 0
DWIDTH 21 0
BBX 0 0 0 0
BITMAP
ENDCHAR
STARTCHAR 165
ENCODING 165
SWIDTH 1512 0
DWIDTH 21 0
BBX 0 0 0 0
BITMAP
ENDCHAR
STARTCHAR 166
ENCODING 166
SWIDTH 1512 0
DWIDTH 21 0
BBX 0 0 0 0
BITMAP
ENDCHAR
STARTCHAR 167
ENCODING 167
SWIDTH 1512 0
DWIDTH 21 0
BBX 0 0 0 0
BITMAP
ENDCHAR
STARTCHAR 168
ENCODING 168
SWIDTH 1512 0
DWIDTH 21 0
BBX 0 0 0 0
BITMAP
ENDCHAR
STARTCHAR 169
ENCODING 169
SWIDTH 1512 0
DWIDTH 21 0
BBX 0 0 0 0
BITMAP
ENDCHAR
STARTCHAR 170
ENCODING 170
SWIDTH 1512 0
DWIDTH 21 0
BBX 0 0 0 0
BITMAP
ENDCHAR
STARTCHAR 171
ENCODING 171
SWIDTH 1512 0
DWIDTH 21 0
BBX 0 0 0 0
BITMAP
ENDCHAR
STARTCHAR 172
ENCODING 172
SWIDTH 1512 0
DWIDTH 21 0
BBX 0 0 0 0
BITMAP
ENDCHAR
STARTCHAR 173
ENCODING 173
SWIDTH 1512 0
DWIDTH 21 0
BBX 0 0 0 0
BITMAP
ENDCHAR
STARTCHAR 174
ENCODING 174
SWIDTH 1512 0
DWIDTH 21 0
BBX 0 0 0 0
BITMAP
ENDCHAR
STARTCHAR 175
ENCODING 175
SWIDTH 1512 0
DWIDTH 21 0
BBX 0 0 0 0
BITMAP
ENDCHAR
STARTCHAR 176
ENCODING 176
SWIDTH 1512 0
DWIDTH 21 0
BBX 0 0 0 0
BITMAP
ENDCHAR
STARTCHAR 177
ENCODING 177
SWIDTH 1512 0
DWIDTH 21 0
BBX 0 0 0 0
BITMAP
ENDCHAR
STARTCHAR 178
ENCODING 178
SWIDTH 1512 0
DWIDTH 21 0
BBX 0 0 0 0
BITMAP
ENDCHAR
STARTCHAR 179
ENCODING 179
SWIDTH 1512 0
DWIDTH 21 0
BBX 0 0 0 0
BITMAP
ENDCHAR
STARTCHAR 180
ENCODING 180
SWIDTH 1512 0
DWIDTH 21 0
BBX 0 0 0 0
BITMAP
ENDCHAR
STARTCHAR 181
ENCODING 181
SWIDTH 1512 0
DWIDTH 21 0
BBX 0 0 0 0
BITMAP
ENDCHAR
STARTCHAR 182
ENCODING 182
SWIDTH 1512 0
DWIDTH 21 0
BBX 0 0 0 0
BITMAP
ENDCHAR
STARTCHAR 183
ENCODING 183
SWIDTH 1512 0
DWIDTH 21 0
BBX 0 0 0 0
BITMAP
ENDCHAR
STARTCHAR 184
ENCODING 184
SWIDTH 1512 0
DWIDTH 21 0
BBX 0 0 0 0
BITMAP
ENDCHAR
STARTCHAR 185
ENCODING 185
SWIDTH 1512 0
DWIDTH 21 0
BBX 0 0 0 0
BITMAP
ENDCHAR
STARTCHAR 186
ENCODING 186
SWIDTH 1512 0
DWIDTH 21 0
BBX 0 0 0 0
BITMAP
ENDCHAR
STARTCHAR 187
ENCODING 187
SWIDTH 1512 0
DWIDTH 21 0
BBX 0 0 0 0
BITMAP
ENDCHAR
STARTCHAR 188
ENCODING 188
SWIDTH 1512 0
DWIDTH 21 0
BBX 0 0 0 0
BITMAP
ENDCHAR
STARTCHAR 189
ENCODING 189
SWIDTH 1512 0
DWIDTH 21 0
BBX 0 0 0 0
BITMAP
ENDCHAR
STARTCHAR 190
ENCODING 190
SWIDTH 1512 0
DWIDTH 21 0
BBX 0 0 0 0
BITMAP
ENDCHAR
STARTCHAR 191
ENCODING 191
SWIDTH 1512 0
DWIDTH 21 0
BBX 0 0 0 0
BITMAP
ENDCHAR
STARTCHAR 192
ENCODING 192
SWIDTH 1512 0
DWIDTH 21 0
BBX 0 0 0 0
BITMAP
ENDCHAR
STARTCHAR 193
ENCODING 193
SWIDTH 1512 0
DWIDTH 21 0
BBX 0 0 0 0
BITMAP
ENDCHAR
STARTCHAR 194
ENCODING 194
SWIDTH 1512 0
DWIDTH 21 0
BBX 0 0 0 0
BITMAP
ENDCHAR
STARTCHAR 195
ENCODING 195
SWIDTH 1512 0
DWIDTH 21 0
BBX 0 0 0 0
BITMAP
ENDCHAR
STARTCHAR 196
ENCODING 196
SWIDTH 1512 0
DWIDTH 21 0
BBX 0 0 0 0
BITMAP
ENDCHAR
STARTCHAR 197
ENCODING 197
SWIDTH 1512 0
DWIDTH 21 0
BBX 0 0 0 0
BITMAP
ENDCHAR
STARTCHAR 198
ENCODING 198
SWIDTH 1512 0
DWIDTH 21 0
BBX 0 0 0 0
BITMAP
ENDCHAR
STARTCHAR 199
ENCODING 199
SWIDTH 1512 0
DWIDTH 21 0
BBX 0 0 0 0
BITMAP
ENDCHAR
STARTCHAR 200
ENCODING 200
SWIDTH 1512 0
DWIDTH 21 0
BBX 0 0 0 0
BITMAP
ENDCHAR
STARTCHAR 201
ENCODING 201
SWIDTH 1512 0
DWIDTH 21 0
BBX 0 0 0 0
BITMAP
ENDCHAR
STARTCHAR 202
ENCODING 202
SWIDTH 1512 0
DWIDTH 21 0
BBX 0 0 0 0
BITMAP
ENDCHAR
STARTCHAR 203
ENCODING 203
SWIDTH 1512 0
DWIDTH 21 0
BBX 0 0 0 0
BITMAP
ENDCHAR
STARTCHAR 204
ENCODING 204
SWIDTH 1512 0
DWIDTH 21 0
BBX 0 0 0 0
BITMAP
ENDCHAR
STARTCHAR 205
ENCODING 205
SWIDTH 1512 0
DWIDTH 21 0
BBX 0 0 0 0
BITMAP
ENDCHAR
STARTCHAR 206
ENCODING 206
SWIDTH 1512 0
DWIDTH 21 0
BBX 0 0 0 0
BITMAP
ENDCHAR
STARTCHAR 207
ENCODING 207
SWIDTH 1512 0
DWIDTH 21 0
BBX 0 0 0 0
BITMAP
ENDCHAR
STARTCHAR 208
ENCODING 208
SWIDTH 1512 0
DWIDTH 21 0
BBX 0 0 0 0
BITMAP
ENDCHAR
STARTCHAR 209
ENCODING 209
SWIDTH 1512 0
DWIDTH 21 0
BBX 0 0 0 0
BITMAP
ENDCHAR
STARTCHAR 210
ENCODING 210
SWIDTH 1512 0
DWIDTH 21 0
BBX 0 0 0 0
BITMAP
ENDCHAR
STARTCHAR 211
ENCODING 211
SWIDTH 1512 0
DWIDTH 21 0
BBX 0 0 0 0
BITMAP
ENDCHAR
STARTCHAR 212
ENCODING 212
SWIDTH 1512 0
DWIDTH 21 0
BBX 0 0 0 0
BITMAP
ENDCHAR
STARTCHAR 213
ENCODING 213
SWIDTH 1512 0
DWIDTH 21 0
BBX 0 0 0 0
BITMAP
ENDCHAR
STARTCHAR 214
ENCODING 214
SWIDTH 1512 0
DWIDTH 21 0
BBX 0 0 0 0
BITMAP
ENDCHAR
STARTCHAR 215
ENCODING 215
SWIDTH 1512 0
DWIDTH 21 0
BBX 0 0 0 0
BITMAP
ENDCHAR
STARTCHAR 216
ENCODING 216
SWIDTH 1512 0
DWIDTH 21 0
BBX 0 0 0 0
BITMAP
ENDCHAR
STARTCHAR 217
ENCODING 217
SWIDTH 1512 0
DWIDTH 21 0
BBX 0 0 0 0
BITMAP
ENDCHAR
STARTCHAR 218
ENCODING 218
SWIDTH 1512 0
DWIDTH 21 0
BBX 0 0 0 0
BITMAP
ENDCHAR
STARTCHAR 219
ENCODING 219
SWIDTH 1512 0
DWIDTH 21 0
BBX 0 0 0 0
BITMAP
ENDCHAR
STARTCHAR 220
ENCODING 220
SWIDTH 1512 0
DWIDTH 21 0
BBX 0 0 0 0
BITMAP
ENDCHAR
STARTCHAR 221
ENCODING 221
SWIDTH 1512 0
DWIDTH 21 0
BBX 0 0 0 0
BITMAP
ENDCHAR
STARTCHAR 222
ENCODING 222
SWIDTH 1512 0
DWIDTH 21 0
BBX 0 0 0 0
BITMAP
ENDCHAR
STARTCHAR 223
ENCODING 223
SWIDTH 1512 0
DWIDTH 21 0
BBX 0 0 0 0
BITMAP
ENDCHAR
STARTCHAR 224
ENCODING 224
SWIDTH 1512 0
DWIDTH 21 0
BBX 0 0 0 0
BITMAP
ENDCHAR
STARTCHAR 225
ENCODING 225
SWIDTH 1512 0
DWIDTH 21 0
BBX 0 0 0 0
BITMAP
ENDCHAR
STARTCHAR 226
ENCODING 226
SWIDTH 1512 0
DWIDTH 21 0
BBX 0 0 0 0
BITMAP
ENDCHAR
STARTCHAR 227
ENCODING 227
SWIDTH 1512 0
DWIDTH 21 0
BBX 0 0 0 0
BITMAP
ENDCHAR
STARTCHAR 228
ENCODING 228
SWIDTH 1512 0
DWIDTH 21 0
BBX 0 0 0 0
BITMAP
ENDCHAR
STARTCHAR 229
ENCODING 229
SWIDTH 1512 0
DWIDTH 21 0
BBX 0 0 0 0
BITMAP
ENDCHAR
STARTCHAR 230
ENCODING 230
SWIDTH 1512 0
DWIDTH 21 0
BBX 0 0 0 0
BITMAP
ENDCHAR
STARTCHAR 231
ENCODING 231
SWIDTH 1512 0
DWIDTH 21 0
BBX 0 0 0 0
BITMAP
ENDCHAR
STARTCHAR 232
ENCODING 232
SWIDTH 1512 0
DWIDTH 21 0
BBX 0 0 0 0
BITMAP
ENDCHAR
STARTCHAR 233
ENCODING 233
SWIDTH 1512 0
DWIDTH 21 0
BBX 0 0 0 0
BITMAP
ENDCHAR
STARTCHAR 234
ENCODING 234
SWIDTH 1512 0
DWIDTH 21 0
BBX 0 0 0 0
BITMAP
ENDCHAR
STARTCHAR 235
ENCODING 235
SWIDTH 1512 0
DWIDTH 21 0
BBX 0 0 0 0
BITMAP
ENDCHAR
STARTCHAR 236
ENCODING 236
SWIDTH 1512 0
DWIDTH 21 0
BBX 0 0 0 0
BITMAP
ENDCHAR
STARTCHAR 237
ENCODING 237
SWIDTH 1512 0
DWIDTH 21 0
BBX 0 0 0 0
BITMAP
ENDCHAR
STARTCHAR 238
ENCODING 238
SWIDTH 1512 0
DWIDTH 21 0
BBX 0 0 0 0
BITMAP
ENDCHAR
STARTCHAR 239
ENCODING 239
SWIDTH 1512 0
DWIDTH 21 0
BBX 0 0 0 0
BITMAP
ENDCHAR
STARTCHAR 240
ENCODING 240
SWIDTH 1512 0
DWIDTH 21 0
BBX 0 0 0 0
BITMAP
ENDCHAR
STARTCHAR 241
ENCODING 241
SWIDTH 1512 0
DWIDTH 21 0
BBX 0 0 0 0
BITMAP
ENDCHAR
STARTCHAR 242
ENCODING 242
SWIDTH 1512 0
DWIDTH 21 0
BBX 0 0 0 0
BITMAP
ENDCHAR
STARTCHAR 243
ENCODING 243
SWIDTH 1512 0
DWIDTH 21 0
BBX 0 0 0 0
BITMAP
ENDCHAR
STARTCHAR 244
ENCODING 244
SWIDTH 1512 0
DWIDTH 21 0
BBX 0 0 0 0
BITMAP
ENDCHAR
STARTCHAR 245
ENCODING 245
SWIDTH 1512 0
DWIDTH 21 0
BBX 0 0 0 0
BITMAP
ENDCHAR
STARTCHAR 246
ENCODING 246
SWIDTH 1512 0
DWIDTH 21 0
BBX 0 0 0 0
BITMAP
ENDCHAR
STARTCHAR 247
ENCODING 247
SWIDTH 1512 0
DWIDTH 21 0
BBX 0 0 0 0
BITMAP
ENDCHAR
STARTCHAR 248
ENCODING 248
SWIDTH 1512 0
DWIDTH 21 0
BBX 0 0 0 0
BITMAP
ENDCHAR
STARTCHAR 249
ENCODING 249
SWIDTH 1512 0
DWIDTH 21 0
BBX 0 0 0 0
BITMAP
ENDCHAR
STARTCHAR 250
ENCODING 250
SWIDTH 1512 0
DWIDTH 21 0
BBX 0 0 0 0
BITMAP
ENDCHAR
STARTCHAR 251
ENCODING 251
SWIDTH 1512 0
DWIDTH 21 0
BBX 0 0 0 0
BITMAP
ENDCHAR
STARTCHAR 252
ENCODING 252
SWIDTH 1512 0
DWIDTH 21 0
BBX 0 0 0 0
BITMAP
ENDCHAR
STARTCHAR 253
ENCODING 253
SWIDTH 1512 0
DWIDTH 21 0
BBX 0 0 0 0
BITMAP
ENDCHAR
STARTCHAR 254
ENCODING 254
SWIDTH 1512 0
DWIDTH 21 0
BBX 0 0 0 0
BITMAP
ENDCHAR
STARTCHAR 255
ENCODING 255
SWIDTH 1512 0
DWIDTH 21 0
BBX 0 0 0 0
BITMAP
ENDCHAR
ENDFONT
